<svg width="942" height="543" viewBox="0 0 942 543" fill="none" xmlns="http://www.w3.org/2000/svg">
<rect x="11" width="914" height="515" fill="url(#paint0_linear_67_1131)"/>
<path d="M612.243 120.75L665 41.8991L717.757 120.75H612.243Z" fill="#DFAF46" fill-opacity="0.38" stroke="white"/>
<path d="M716.243 120.75L769 41.8991L821.757 120.75H716.243Z" fill="#DFAF46" fill-opacity="0.51" stroke="white"/>
<path d="M664.243 200.75L717 121.899L769.757 200.75H664.243Z" fill="#DFAF46" fill-opacity="0.43" stroke="white"/>
<path d="M768.243 200.75L821 121.899L873.757 200.75H768.243Z" fill="#DFAF46" fill-opacity="0.49" stroke="white"/>
<path d="M924.5 276.34L874.599 200.5L924.5 124.66V276.34Z" fill="#DFAF46" fill-opacity="0.49" stroke="white"/>
<path d="M924.193 69.75L924.193 120.604L871.936 42.5H924.193V69.75Z" fill="#DFAF46" fill-opacity="0.49" stroke="white"/>
<path d="M822.029 121.75L873.5 42.9146L924.971 121.75H822.029Z" fill="#DFAF46" fill-opacity="0.52" stroke="white"/>
<path d="M665.757 43.25L613 122.101L560.243 43.25H665.757Z" fill="#DFAF46" fill-opacity="0.49" stroke="white"/>
<path d="M717.757 121.25L665 200.101L612.243 121.25H717.757Z" fill="#DFAF46" fill-opacity="0.38" stroke="white"/>
<path d="M822.757 121.25L770 200.101L717.243 121.25H822.757Z" fill="#DFAF46" fill-opacity="0.75" stroke="white"/>
<path d="M925.757 121.25L873 200.101L820.243 121.25H925.757Z" fill="#DFAF46" fill-opacity="0.75" stroke="white"/>
<path d="M769.757 43.25L717 122.101L664.243 43.25H769.757Z" fill="#DFAF46" fill-opacity="0.29" stroke="white"/>
<path d="M874.757 43.25L822 122.101L769.243 43.25H874.757Z" fill="#DFAF46" fill-opacity="0.42" stroke="white"/>
<path d="M820.243 435.75L873 356.899L925.757 435.75H820.243Z" fill="#DFAF46" fill-opacity="0.75" stroke="white"/>
<path d="M873.757 357.25L821 436.101L768.243 357.25H873.757Z" fill="#DFAF46" fill-opacity="0.28" stroke="white"/>
<path d="M927.064 435.25L874.306 514.101L821.549 435.25H927.064Z" fill="#DFAF46" fill-opacity="0.12" stroke="white"/>
<path d="M925.5 390L925.5 436.354L873.243 358.25H925.5V390Z" fill="#DFAF46" fill-opacity="0.75" stroke="white"/>
<path d="M767.243 356.75L820 277.899L872.757 356.75H767.243Z" fill="#DFAF46" fill-opacity="0.75" stroke="white"/>
<path d="M872.243 356.75L924.5 278.646L924.5 325.5L924.5 356.75H872.243Z" fill="#DFAF46" fill-opacity="0.38" stroke="white"/>
<path d="M873.936 514.75L926.194 436.646L926.194 483.5L926.194 514.75H873.936Z" fill="#DFAF46" fill-opacity="0.38" stroke="white"/>
<path d="M820.757 279.25L768 358.101L715.243 279.25H820.757Z" fill="#DFAF46" fill-opacity="0.33" stroke="white"/>
<path d="M924.757 279.25L872 358.101L819.243 279.25H924.757Z" fill="#DFAF46" fill-opacity="0.49" stroke="white"/>
<path d="M716.243 278.75L769 199.899L821.757 278.75H716.243Z" fill="#DFAF46" fill-opacity="0.3" stroke="white"/>
<path d="M820.243 278.75L873 199.899L925.757 278.75H820.243Z" fill="#DFAF46" fill-opacity="0.46" stroke="white"/>
<path d="M769.757 201.25L717 280.101L664.243 201.25H769.757Z" fill="#DFAF46" fill-opacity="0.14" stroke="white"/>
<path d="M873.757 201.25L821 280.101L768.243 201.25H873.757Z" fill="#DFAF46" fill-opacity="0.75" stroke="white"/>
<path d="M375.757 435.25L323 514.101L270.243 435.25H375.757Z" fill="#DFAF46" fill-opacity="0.09" stroke="white"/>
<path d="M271.757 435.25L219 514.101L166.243 435.25H271.757Z" fill="#DFAF46" fill-opacity="0.04" stroke="white"/>
<path d="M167.757 435.25L115 514.101L62.2426 435.25H167.757Z" fill="#DFAF46" fill-opacity="0.51" stroke="white"/>
<path d="M219.757 355.25L167 434.101L114.243 355.25H219.757Z" fill="#DFAF46" fill-opacity="0.43" stroke="white"/>
<path d="M114.757 355.25L62 434.101L9.24257 355.25H114.757Z" fill="#DFAF46" fill-opacity="0.49" stroke="white"/>
<path d="M62.7572 435.25L10.4998 513.354L10.4998 464.5L10.4998 435.25H62.7572Z" fill="#DFAF46" fill-opacity="0.52" stroke="white"/>
<path d="M323.233 515.25L376 434.911L428.767 515.25H323.233Z" fill="#DFAF46" fill-opacity="0.18" stroke="white"/>
<path d="M218.233 514.25L271 433.911L323.767 514.25H218.233Z" fill="#DFAF46" fill-opacity="0.49" stroke="white"/>
<path d="M166.243 434.75L219 355.899L271.757 434.75H166.243Z" fill="#DFAF46" fill-opacity="0.2" stroke="white"/>
<path d="M61.2426 434.75L114 355.899L166.757 434.75H61.2426Z" fill="#DFAF46" fill-opacity="0.26" stroke="white"/>
<path d="M9.50003 397.5L9.5 356.646L61.7574 434.75H9.5L9.50003 397.5Z" fill="#DFAF46" fill-opacity="0.75" stroke="white"/>
<path d="M114.233 514.25L167 433.911L219.767 514.25H114.233Z" fill="#DFAF46" fill-opacity="0.75" stroke="white"/>
<path d="M9.23303 514.25L62 433.911L114.767 514.25H9.23303Z" fill="#DFAF46" fill-opacity="0.75" stroke="white"/>
<path d="M62.7572 119.25L10.4998 197.354L10.4998 142.5V119.25H62.7572Z" fill="#DFAF46" fill-opacity="0.75" stroke="white"/>
<path d="M10.2426 198.75L63 119.899L115.757 198.75H10.2426Z" fill="#DFAF46" fill-opacity="0.28" stroke="white"/>
<path d="M63.5002 118.5V57H10.8067L10.8066 118.5H63.5002Z" fill="#DFAF46" fill-opacity="0.28" stroke="white"/>
<path d="M10.5 28.7664V1.25479L62.8376 56.5H10.5L10.5 28.7664Z" fill="#DFAF46" fill-opacity="0.12" stroke="white"/>
<path d="M585.766 0.50002L609.602 0.50002L561.5 39.9434V0.49998L585.766 0.50002Z" fill="#DFAF46" fill-opacity="0.12" stroke="white"/>
<path d="M116.757 199.25L64 278.101L11.2426 199.25H116.757Z" fill="#DFAF46" fill-opacity="0.75" stroke="white"/>
<path d="M63.2426 276.75L116 197.899L168.757 276.75H63.2426Z" fill="#DFAF46" fill-opacity="0.18" stroke="white"/>
<path d="M10.5001 243.5L10.5 198.646L62.7575 276.75H10.5L10.5001 243.5Z" fill="#DFAF46" fill-opacity="0.49" stroke="white"/>
<path d="M167.757 277.25L115 356.101L62.2426 277.25H167.757Z" fill="#DFAF46" fill-opacity="0.3" stroke="white"/>
<path d="M62.7572 277.25L10.4998 355.354L10.4998 306L10.4998 277.25H62.7572Z" fill="#DFAF46" fill-opacity="0.46" stroke="white"/>
<path d="M114.243 354.75L167 275.899L219.757 354.75H114.243Z" fill="#DFAF46" fill-opacity="0.14" stroke="white"/>
<path d="M10.2426 354.75L63 275.899L115.757 354.75H10.2426Z" fill="#DFAF46" fill-opacity="0.75" stroke="white"/>
<path d="M842.5 0.5H923.5V42.5H842.5V0.5Z" fill="#DFAF46" fill-opacity="0.48" stroke="white"/>
<path d="M609.5 0.5H841.5V43.5H609.5V0.5Z" fill="#DFAF46" fill-opacity="0.53" stroke="white"/>
<path d="M560.281 42.25L610 0.651923L659.719 42.25H560.281Z" fill="#DFAF46" fill-opacity="0.21" stroke="white"/>
<line x1="757.35" y1="1.30438" x2="725.397" y2="42.9477" stroke="white"/>
<line x1="874" y1="200.5" x2="926" y2="200.5" stroke="white"/>
<defs>
<linearGradient id="paint0_linear_67_1131" x1="468" y1="0" x2="468" y2="515" gradientUnits="userSpaceOnUse">
<stop stop-color="white"/>
<stop offset="1" stop-color="#DFAF46" stop-opacity="0.26"/>
</linearGradient>
</defs>
</svg>
