<svg xmlns="http://www.w3.org/2000/svg" xmlns:xlink="http://www.w3.org/1999/xlink" width="500" zoomAndPan="magnify" viewBox="0 0 375 374.999991" height="500" preserveAspectRatio="xMidYMid meet" version="1.0"><defs><g/><clipPath id="1f3bce2f37"><path d="M 75.902344 116.785156 L 299.402344 116.785156 L 299.402344 246.535156 L 75.902344 246.535156 Z M 75.902344 116.785156 " clip-rule="nonzero"/></clipPath></defs><g fill="#000000" fill-opacity="1"><g transform="translate(118.198173, 182.599997)"><g><path d="M 1.953125 0 L 1.953125 -20.640625 L 7.078125 -20.640625 L 12.40625 -8.09375 L 17.71875 -20.640625 L 22.8125 -20.640625 L 22.8125 0 L 17.953125 0 L 17.953125 -11.34375 L 13.640625 -0.890625 L 11.171875 -0.890625 L 6.828125 -11.34375 L 6.828125 0 Z M 1.953125 0 "/></g></g></g><g fill="#000000" fill-opacity="1"><g transform="translate(142.97479, 182.599997)"><g><path d="M 1.125 0 L 1.125 -3.953125 L 3.421875 -3.953125 L 3.359375 -16.6875 L 1.125 -16.6875 L 1.125 -20.640625 L 10.640625 -20.640625 L 10.640625 -16.6875 L 8.375 -16.6875 L 8.3125 -3.953125 L 10.640625 -3.953125 L 10.640625 0 Z M 1.125 0 "/></g></g></g><g fill="#000000" fill-opacity="1"><g transform="translate(154.733182, 182.599997)"><g><path d="M 5.90625 0 L 5.90625 -16.375 L 0.140625 -16.375 L 0.140625 -20.640625 L 16.90625 -20.640625 L 16.90625 -16.375 L 11.140625 -16.375 L 11.140625 0 Z M 5.90625 0 "/></g></g></g><g fill="#000000" fill-opacity="1"><g transform="translate(171.782852, 182.599997)"><g><path d="M 5.90625 0 L 5.90625 -16.375 L 0.140625 -16.375 L 0.140625 -20.640625 L 16.90625 -20.640625 L 16.90625 -16.375 L 11.140625 -16.375 L 11.140625 0 Z M 5.90625 0 "/></g></g></g><g fill="#000000" fill-opacity="1"><g transform="translate(188.832522, 182.599997)"><g><path d="M 0 0 L 6.046875 -20.640625 L 14.5625 -20.640625 L 20.609375 0 L 15.0625 0 L 14.03125 -4.109375 L 6.578125 -4.109375 L 5.546875 0 Z M 7.609375 -8.140625 L 12.984375 -8.140625 L 10.8125 -16.6875 L 9.796875 -16.6875 Z M 7.609375 -8.140625 "/></g></g></g><g fill="#000000" fill-opacity="1"><g transform="translate(209.437711, 182.599997)"><g><path d="M 1.953125 0 L 1.953125 -20.640625 L 7.203125 -20.640625 L 7.203125 -4.25 L 16.65625 -4.25 L 16.65625 0 Z M 1.953125 0 "/></g></g></g><g clip-path="url(#1f3bce2f37)"><path fill="#dfaf46" d="M 188.863281 215.714844 L 174.152344 215.714844 C 165.625 223.964844 154.011719 229.039062 141.214844 229.039062 C 115.039062 229.039062 93.820312 207.820312 93.820312 181.648438 C 93.820312 155.472656 115.039062 134.253906 141.214844 134.253906 C 154.011719 134.253906 165.625 139.332031 174.152344 147.578125 L 299.082031 147.578125 L 184.199219 141.859375 L 186.84375 134.933594 L 226.539062 129.347656 L 176.613281 126.761719 L 170.441406 130.882812 C 167.957031 129.453125 165.359375 128.195312 162.660156 127.132812 L 162.410156 124.148438 L 176.613281 124.101562 L 162.039062 119.734375 C 157.957031 118.359375 153.691406 117.378906 149.292969 116.835938 L 145.523438 123.238281 C 144.097656 123.136719 142.664062 123.0625 141.214844 123.0625 C 139.761719 123.0625 138.328125 123.136719 136.902344 123.238281 L 133.132812 116.835938 C 128.734375 117.378906 124.472656 118.359375 120.386719 119.730469 L 119.765625 127.132812 C 117.070312 128.195312 114.472656 129.453125 111.988281 130.882812 L 105.8125 126.761719 C 102.128906 129.140625 98.703125 131.882812 95.582031 134.933594 L 98.230469 141.859375 C 96.273438 143.972656 94.46875 146.222656 92.839844 148.605469 L 85.5 147.5625 C 83.234375 151.253906 81.324219 155.191406 79.824219 159.324219 L 85.210938 164.414062 C 84.371094 167.148438 83.726562 169.960938 83.289062 172.847656 L 76.230469 175.097656 C 76.015625 177.25 75.90625 179.4375 75.90625 181.648438 C 75.90625 183.855469 76.015625 186.042969 76.230469 188.199219 L 83.289062 190.445312 C 83.726562 193.332031 84.371094 196.148438 85.210938 198.878906 L 79.820312 203.96875 C 81.324219 208.101562 83.234375 212.039062 85.5 215.734375 L 92.839844 214.6875 C 94.46875 217.070312 96.273438 219.324219 98.230469 221.433594 L 95.582031 228.359375 C 98.703125 231.410156 102.128906 234.152344 105.8125 236.535156 L 111.988281 232.410156 C 114.472656 233.84375 117.070312 235.097656 119.765625 236.160156 L 120.386719 243.5625 C 124.472656 244.933594 128.734375 245.914062 133.132812 246.457031 L 136.902344 240.054688 C 138.328125 240.15625 139.761719 240.230469 141.214844 240.230469 C 142.664062 240.230469 144.097656 240.15625 145.523438 240.054688 L 149.292969 246.457031 C 153.691406 245.914062 157.953125 244.933594 162.039062 243.5625 L 176.613281 239.195312 L 162.410156 239.148438 L 162.660156 236.160156 C 165.355469 235.097656 167.953125 233.84375 170.4375 232.410156 L 176.613281 236.535156 L 226.539062 233.945312 L 186.84375 228.363281 L 184.195312 221.433594 L 254.210938 215.714844 L 188.863281 215.714844 " fill-opacity="1" fill-rule="nonzero"/></g><path fill="#393536" d="M 158.738281 147.578125 L 167.507812 147.578125 C 160.234375 141.957031 151.117188 138.609375 141.214844 138.609375 C 117.445312 138.609375 98.175781 157.878906 98.175781 181.648438 C 98.175781 205.417969 117.445312 224.683594 141.214844 224.683594 C 151.117188 224.683594 160.234375 221.339844 167.507812 215.714844 L 142.617188 215.714844 L 153.628906 217.894531 C 149.734375 219.230469 145.558594 219.953125 141.214844 219.953125 C 120.058594 219.953125 102.90625 202.800781 102.90625 181.648438 C 102.90625 160.492188 120.058594 143.339844 141.214844 143.339844 C 145.558594 143.339844 149.734375 144.066406 153.628906 145.398438 L 142.617188 147.578125 L 158.738281 147.578125 " fill-opacity="1" fill-rule="nonzero"/><g fill="#000000" fill-opacity="1"><g transform="translate(110.932548, 200.249958)"><g><path d="M 1.125 0 L 1.125 -9.578125 L 7.453125 -9.578125 L 7.453125 -8.484375 L 2.3125 -8.484375 L 2.3125 -5.578125 L 6.90625 -5.578125 L 6.90625 -4.5 L 2.3125 -4.5 L 2.3125 -1.09375 L 7.453125 -1.09375 L 7.453125 0 Z M 1.125 0 "/></g></g></g><g fill="#000000" fill-opacity="1"><g transform="translate(119.05506, 200.249958)"><g><path d="M 0.8125 -3.34375 L 0.8125 -4.296875 L 5.109375 -4.296875 L 5.109375 -3.34375 Z M 0.8125 -3.34375 "/></g></g></g><g fill="#000000" fill-opacity="1"><g transform="translate(124.981245, 200.249958)"><g><path d="M 1.125 0 L 1.125 -9.578125 L 6.375 -9.578125 L 7.71875 -8.21875 L 7.71875 -5.15625 L 6.375 -3.796875 L 6.328125 -3.796875 L 8.0625 0 L 6.75 0 L 5.046875 -3.796875 L 2.3125 -3.796875 L 2.3125 0 Z M 2.3125 -4.84375 L 5.84375 -4.84375 L 6.53125 -5.5625 L 6.53125 -7.8125 L 5.84375 -8.53125 L 2.3125 -8.53125 Z M 2.3125 -4.84375 "/></g></g></g><g fill="#000000" fill-opacity="1"><g transform="translate(133.779554, 200.249958)"><g><path d="M 0.8125 0 L 0.8125 -1.09375 L 1.96875 -1.09375 L 1.96875 -8.484375 L 0.8125 -8.484375 L 0.8125 -9.578125 L 4.328125 -9.578125 L 4.328125 -8.484375 L 3.15625 -8.484375 L 3.15625 -1.09375 L 4.328125 -1.09375 L 4.328125 0 Z M 0.8125 0 "/></g></g></g><g fill="#000000" fill-opacity="1"><g transform="translate(138.912984, 200.249958)"><g><path d="M 2.25 0 L 0.890625 -1.359375 L 0.890625 -8.21875 L 2.25 -9.578125 L 6.578125 -9.578125 L 7.90625 -8.25 L 7.15625 -7.484375 L 6.109375 -8.53125 L 2.78125 -8.53125 L 2.0625 -7.8125 L 2.0625 -1.765625 L 2.78125 -1.046875 L 6.21875 -1.046875 L 7.265625 -2.109375 L 8.015625 -1.34375 L 6.671875 0 Z M 2.25 0 "/></g></g></g><g fill="#000000" fill-opacity="1"><g transform="translate(147.321404, 200.249958)"><g><path d="M 1.125 0 L 1.125 -9.578125 L 2.3125 -9.578125 L 2.3125 -4.46875 L 6.84375 -9.578125 L 8.234375 -9.578125 L 4.65625 -5.46875 L 8.3125 0 L 6.890625 0 L 3.828125 -4.546875 L 2.3125 -2.8125 L 2.3125 0 Z M 1.125 0 "/></g></g></g><g fill="#000000" fill-opacity="1"><g transform="translate(155.846794, 200.249958)"><g><path d="M 1.140625 0 L 1.140625 -1.09375 L 5.859375 -1.09375 L 6.5625 -1.8125 L 6.5625 -3.71875 L 5.859375 -4.4375 L 2.15625 -4.4375 L 0.8125 -5.78125 L 0.8125 -8.21875 L 2.15625 -9.578125 L 7.25 -9.578125 L 7.25 -8.484375 L 2.6875 -8.484375 L 1.96875 -7.78125 L 1.984375 -6.1875 L 2.6875 -5.46875 L 6.390625 -5.46875 L 7.75 -4.109375 L 7.75 -1.359375 L 6.390625 0 Z M 1.140625 0 "/></g></g></g><g fill="#000000" fill-opacity="1"><g transform="translate(164.398174, 200.249958)"><g><path d="M 1.125 0 L 1.125 -9.578125 L 2.3125 -9.578125 L 2.3125 -5.5625 L 7.0625 -5.5625 L 7.0625 -9.578125 L 8.234375 -9.578125 L 8.234375 0 L 7.0625 0 L 7.0625 -4.515625 L 2.3125 -4.515625 L 2.3125 0 Z M 1.125 0 "/></g></g></g><g fill="#000000" fill-opacity="1"><g transform="translate(173.755309, 200.249958)"><g><path d="M 0.1875 0 L 3.421875 -9.578125 L 5.25 -9.578125 L 8.484375 0 L 7.25 0 L 6.4375 -2.5 L 2.234375 -2.5 L 1.4375 0 Z M 2.59375 -3.53125 L 6.09375 -3.53125 L 4.484375 -8.46875 L 4.1875 -8.46875 Z M 2.59375 -3.53125 "/></g></g></g><g fill="#000000" fill-opacity="1"><g transform="translate(182.423647, 200.249958)"><g><path d="M 2.515625 0 L 0.171875 -9.578125 L 1.421875 -9.578125 L 3.296875 -1.125 L 3.59375 -1.125 L 5.375 -9.578125 L 6.453125 -9.578125 L 8.234375 -1.125 L 8.515625 -1.125 L 10.40625 -9.578125 L 11.640625 -9.578125 L 9.296875 0 L 7.4375 0 L 5.90625 -7.078125 L 4.375 0 Z M 2.515625 0 "/></g></g></g><g fill="#000000" fill-opacity="1"><g transform="translate(194.237027, 200.249958)"><g/></g></g><g fill="#000000" fill-opacity="1"><g transform="translate(197.12214, 200.249958)"><g><path d="M 1.125 0 L 1.125 -9.578125 L 6.1875 -9.578125 L 7.546875 -8.21875 L 7.546875 -4.921875 L 6.1875 -3.5625 L 2.3125 -3.5625 L 2.3125 0 Z M 2.3125 -4.609375 L 5.65625 -4.609375 L 6.359375 -5.328125 L 6.359375 -7.8125 L 5.65625 -8.546875 L 2.3125 -8.53125 Z M 2.3125 -4.609375 "/></g></g></g><g fill="#000000" fill-opacity="1"><g transform="translate(205.049714, 200.249958)"><g><path d="M 0.1875 0 L 3.421875 -9.578125 L 5.25 -9.578125 L 8.484375 0 L 7.25 0 L 6.4375 -2.5 L 2.234375 -2.5 L 1.4375 0 Z M 2.59375 -3.53125 L 6.09375 -3.53125 L 4.484375 -8.46875 L 4.1875 -8.46875 Z M 2.59375 -3.53125 "/></g></g></g><g fill="#000000" fill-opacity="1"><g transform="translate(213.718052, 200.249958)"><g><path d="M 1.125 0 L 1.125 -9.578125 L 6.375 -9.578125 L 7.71875 -8.21875 L 7.71875 -5.15625 L 6.375 -3.796875 L 6.328125 -3.796875 L 8.0625 0 L 6.75 0 L 5.046875 -3.796875 L 2.3125 -3.796875 L 2.3125 0 Z M 2.3125 -4.84375 L 5.84375 -4.84375 L 6.53125 -5.5625 L 6.53125 -7.8125 L 5.84375 -8.53125 L 2.3125 -8.53125 Z M 2.3125 -4.84375 "/></g></g></g><g fill="#000000" fill-opacity="1"><g transform="translate(222.516361, 200.249958)"><g><path d="M 3.015625 0 L 3.015625 -8.484375 L 0.171875 -8.484375 L 0.171875 -9.578125 L 7.046875 -9.578125 L 7.046875 -8.484375 L 4.203125 -8.484375 L 4.203125 0 Z M 3.015625 0 "/></g></g></g><g fill="#000000" fill-opacity="1"><g transform="translate(229.729148, 200.249958)"><g><path d="M 1.140625 0 L 1.140625 -1.09375 L 5.859375 -1.09375 L 6.5625 -1.8125 L 6.5625 -3.71875 L 5.859375 -4.4375 L 2.15625 -4.4375 L 0.8125 -5.78125 L 0.8125 -8.21875 L 2.15625 -9.578125 L 7.25 -9.578125 L 7.25 -8.484375 L 2.6875 -8.484375 L 1.96875 -7.78125 L 1.984375 -6.1875 L 2.6875 -5.46875 L 6.390625 -5.46875 L 7.75 -4.109375 L 7.75 -1.359375 L 6.390625 0 Z M 1.140625 0 "/></g></g></g></svg>